<svg xmlns="http://www.w3.org/2000/svg" width="2000" height="1500" viewBox="0 0 2000 1500" version="1.1"><path d="M 0 750 L 0 1500.001 1000.250 1499.750 L 2000.500 1499.500 2000.751 749.750 L 2001.001 0 1000.501 0 L 0 0 0 750 M 0.497 750.500 C 0.497 1163, 0.611 1331.600, 0.750 1125.168 C 0.889 918.735, 0.889 581.235, 0.750 375.168 C 0.611 169.100, 0.497 338, 0.497 750.500 M 1478.917 558.148 L 1476.500 566.296 1471.615 567.718 C 1464.952 569.657, 1456.943 577.644, 1454.606 584.682 L 1452.906 589.799 1443.703 592.036 C 1438.641 593.266, 1433.925 594.574, 1433.223 594.941 C 1432.520 595.309, 1436.691 596.664, 1442.492 597.951 L 1453.038 600.292 1456.199 606.221 C 1459.878 613.124, 1464.611 617.396, 1471.188 619.748 L 1475.875 621.425 1478.608 631.209 C 1480.111 636.590, 1481.493 640.840, 1481.680 640.653 C 1481.867 640.466, 1483.272 636.106, 1484.803 630.965 L 1487.586 621.616 1492.043 619.262 C 1497.944 616.146, 1503.486 610.626, 1505.926 605.434 L 1507.907 601.220 1519.449 598.405 C 1525.797 596.857, 1530.655 595.283, 1530.245 594.907 C 1529.835 594.531, 1524.823 593.124, 1519.107 591.779 L 1508.715 589.334 1506.730 584.013 C 1504.294 577.481, 1498.100 571.061, 1491.704 568.437 L 1486.981 566.500 1484.458 558.250 C 1483.071 553.712, 1481.801 550, 1481.635 550 C 1481.470 550, 1480.247 553.667, 1478.917 558.148 M 1234.471 575.225 C 1234.204 575.926, 1234.102 642.650, 1234.243 723.500 L 1234.500 870.500 1251 870.500 L 1267.500 870.500 1268.040 803.500 L 1268.581 736.500 1270.785 728.500 C 1278.746 699.597, 1297.342 682.865, 1324.210 680.430 C 1338.106 679.171, 1352.261 682.900, 1360.267 689.930 C 1367.621 696.386, 1372.999 709.563, 1374.978 725.974 C 1375.581 730.976, 1376 762.418, 1376 802.724 L 1376 871 1392.500 871 L 1409 871 1408.996 798.250 C 1408.992 719.601, 1408.759 715.412, 1403.550 700.129 C 1396.030 678.070, 1379.335 661.464, 1358.678 655.498 C 1344.768 651.480, 1322.954 651.961, 1309.103 656.591 C 1294.889 661.342, 1279.977 672.688, 1271.600 685.127 L 1268.016 690.449 1267.758 632.474 L 1267.500 574.500 1251.228 574.225 C 1238.759 574.014, 1234.843 574.248, 1234.471 575.225 M 280.997 589.250 C 280.995 591.038, 277.622 653.025, 273.500 727 C 269.378 800.975, 266.005 863.638, 266.003 866.250 L 266 871 282.883 871 L 299.765 871 300.369 863.750 C 300.701 859.763, 303.706 803.850, 307.046 739.500 C 310.386 675.150, 313.430 621.264, 313.810 619.753 C 314.465 617.147, 327.526 656.438, 389.273 846.750 L 397.141 871 416.592 871 L 436.043 871 437.046 868.750 C 437.597 867.513, 456.270 810.280, 478.541 741.566 C 500.812 672.853, 519.252 616.415, 519.517 616.150 C 519.783 615.884, 519.997 617.204, 519.993 619.083 C 519.979 625.441, 533.091 868.490, 533.516 869.750 C 533.830 870.682, 538.123 871, 550.410 871 C 559.469 871, 567.084 870.663, 567.330 870.250 C 567.577 869.837, 564.243 806.275, 559.922 729 C 555.600 651.725, 552.050 587.938, 552.032 587.250 C 552.007 586.279, 545.460 586, 522.719 586 L 493.438 586 455.559 707.250 C 434.725 773.938, 417.359 829.130, 416.966 829.899 C 416.474 830.866, 415.919 830.247, 415.173 827.899 C 414.578 826.030, 398.076 772.975, 378.501 710 C 358.926 647.025, 342.219 593.362, 341.375 590.750 L 339.839 586 310.420 586 L 281 586 280.997 589.250 M 697.500 653.122 C 668.097 655.310, 642.163 670.199, 625.808 694.282 C 602.518 728.578, 599.424 781.969, 618.494 820.500 C 628.585 840.889, 643.004 855.487, 662.500 865.051 C 676.101 871.723, 685.406 873.988, 702.114 874.694 C 730.132 875.879, 750.801 869.616, 770.394 854.005 C 796.803 832.964, 810.248 799.233, 808.659 758 C 807.364 724.402, 796.680 698.306, 776.230 678.801 C 756.017 659.521, 729.171 650.765, 697.500 653.122 M 942.318 653.146 C 920.515 655.535, 899.817 668.777, 888.494 687.580 L 885 693.382 885 675.191 L 885 657 868.995 657 L 852.991 657 853.245 763.750 L 853.500 870.500 870 870.500 L 886.500 870.500 887.035 805.500 L 887.570 740.500 889.779 732.500 C 896.722 707.356, 911.542 691.619, 933.053 686.549 C 941.267 684.613, 952.711 684.608, 960.895 686.537 C 964.412 687.366, 967.391 687.922, 967.516 687.772 C 968.095 687.076, 971.775 657.445, 971.364 656.781 C 970.618 655.572, 960.985 653.209, 955 652.766 C 951.975 652.542, 946.268 652.713, 942.318 653.146 M 1094 653.073 C 1083.218 654.070, 1074.820 656.483, 1064.067 661.671 C 1056.237 665.449, 1053.263 667.605, 1046.558 674.361 C 1041.928 679.027, 1037.110 685.061, 1035.267 688.500 L 1032.053 694.500 1032.027 675.725 L 1032 656.949 1016.250 657.225 L 1000.500 657.500 1000.500 802.500 L 1000.500 947.500 1016.750 947.775 L 1033 948.050 1033 892.411 L 1033 836.772 1037.005 842.770 C 1046.195 856.532, 1060.954 866.810, 1079.008 872.021 C 1089.512 875.053, 1108.746 875.819, 1119.344 873.627 C 1156.642 865.914, 1181.630 834.929, 1188.589 787.765 C 1190.823 772.622, 1190.057 744.916, 1187.010 730.615 C 1182.048 707.326, 1173.408 689.907, 1160.003 676.165 C 1142.992 658.727, 1119.966 650.671, 1094 653.073 M 1619.851 653.033 C 1570.299 657.636, 1537.941 706.539, 1541.378 771.628 C 1543.862 818.673, 1561.953 851.922, 1593.500 867.423 C 1603.449 872.311, 1610.801 874.047, 1624.354 874.706 C 1638.073 875.374, 1646.642 874.161, 1658.443 869.880 C 1674.085 864.206, 1687.415 853.736, 1694.574 841.500 L 1697.500 836.500 1697.758 892.275 L 1698.017 948.049 1714.258 947.775 L 1730.500 947.500 1730.753 802.225 L 1731.007 656.949 1715.253 657.225 L 1699.500 657.500 1699.226 674.868 L 1698.952 692.235 1694.957 686.055 C 1689.370 677.410, 1682.817 670.695, 1675.392 666.006 C 1659.604 656.035, 1639.098 651.245, 1619.851 653.033 M 1464.245 763.750 L 1464.500 870.500 1480.750 870.775 L 1497 871.050 1497 764.025 L 1497 657 1480.495 657 L 1463.991 657 1464.245 763.750 M 696.691 681.043 C 677.137 684.328, 661.949 695.897, 652.699 714.551 C 648.388 723.245, 646.530 729.077, 644.431 740.500 C 642.076 753.318, 642.890 782.921, 645.930 795 C 652.513 821.161, 669.208 839.853, 691.046 845.512 C 699.484 847.698, 715.533 847.692, 724.034 845.498 C 745.611 839.930, 762.602 821.055, 769.030 795.513 C 773.411 778.101, 773.600 751.623, 769.468 734 C 765.711 717.976, 757.551 703.164, 747.701 694.488 C 734.912 683.223, 714.982 677.970, 696.691 681.043 M 1086 680.594 C 1062.380 684.873, 1045.943 699.764, 1038.310 723.802 C 1031.355 745.703, 1031.255 781.663, 1038.090 803 C 1044.359 822.570, 1058.184 838.062, 1075 844.361 C 1084.879 848.062, 1101.820 848.063, 1112.105 844.365 C 1119.409 841.739, 1129.952 834.051, 1135.320 827.438 C 1137.971 824.172, 1141.890 817.900, 1144.030 813.500 C 1156.885 787.059, 1156.880 739.872, 1144.018 713.500 C 1136.403 697.888, 1124.943 687.237, 1111.150 682.953 C 1104.700 680.950, 1091.085 679.673, 1086 680.594 M 1626.317 681.503 C 1609.681 685.119, 1596.377 696.176, 1587.586 713.692 C 1580.173 728.464, 1577.419 745.449, 1578.320 770.846 C 1578.912 787.545, 1580.168 795.516, 1583.904 806.275 C 1590.616 825.605, 1604.275 839.916, 1620.918 845.056 C 1629.264 847.634, 1644.944 847.819, 1653 845.435 C 1679.766 837.513, 1695.673 813.038, 1697.801 776.500 C 1700.567 729.014, 1688.825 699.582, 1661.622 685.816 C 1650.883 680.382, 1638.457 678.864, 1626.317 681.503 M 695.946 696.698 C 671.866 708.625, 659.913 751.284, 670.082 789 C 674.514 805.436, 684.127 819.438, 695.171 825.541 C 702.645 829.672, 711.989 829.733, 720.190 825.706 C 747.648 812.222, 758.226 756.380, 740.347 719.297 C 735.431 709.101, 724.851 698.122, 717.572 695.664 C 710.049 693.124, 702.426 693.488, 695.946 696.698 M 1086.500 695.227 C 1073.934 699.707, 1062.022 715.910, 1056.894 735.500 C 1054.219 745.721, 1053.287 765.701, 1054.955 777.106 C 1058.264 799.735, 1069.675 819.302, 1083.500 826.053 C 1090.678 829.559, 1100.556 829.450, 1107.576 825.789 C 1119.074 819.794, 1129.604 803.835, 1134.160 785.500 C 1137.030 773.951, 1137.283 750.640, 1134.663 739.155 C 1129.865 718.121, 1119.157 702.054, 1105.943 696.059 C 1101.018 693.825, 1091.568 693.421, 1086.500 695.227 M 1629.764 694.996 C 1617.765 698.609, 1605.177 715.231, 1599.966 734.344 C 1595.950 749.072, 1595.769 771.182, 1599.537 786.730 C 1602.267 797.994, 1609.376 811.536, 1616.077 818.237 C 1623.689 825.849, 1629.367 828.440, 1638.500 828.466 C 1644.410 828.483, 1646.336 828.024, 1650.868 825.520 C 1681.191 808.763, 1689.434 746.728, 1665.994 711.683 C 1657.940 699.642, 1649.106 693.995, 1638.500 694.108 C 1635.200 694.143, 1631.269 694.543, 1629.764 694.996" stroke="none" fill="#ffffff" fill-rule="evenodd"/><path d="M 1467.356 569.969 C 1464.527 571.592, 1460.878 574.538, 1459.248 576.516 C 1456.145 580.280, 1453.207 587.540, 1454.332 588.665 C 1455.625 589.958, 1462.673 586.972, 1466.931 583.327 C 1470.847 579.975, 1475.965 571.457, 1475.990 568.250 C 1476.006 566.200, 1472.822 566.834, 1467.356 569.969 M 1487.521 569.151 C 1490.321 578.305, 1494.841 583.825, 1502.090 586.943 C 1504.897 588.151, 1507.378 588.956, 1507.602 588.732 C 1508.370 587.963, 1505.723 581.499, 1503.206 578 C 1499.339 572.624, 1494.871 569.294, 1489.151 567.528 L 1486.803 566.803 1487.521 569.151 M 1235 722 L 1235 870 1251 870 L 1267 870 1267.021 817.250 C 1267.050 741.865, 1268.152 729.820, 1276.639 712.122 C 1281.445 702.098, 1292.508 690.870, 1302.213 686.165 C 1313.902 680.499, 1328.281 678.646, 1341.566 681.093 C 1358.134 684.146, 1367.727 694.054, 1373.277 713.846 L 1375.424 721.500 1375.765 795.750 L 1376.106 870 1392.605 870 L 1409.104 870 1408.732 794.250 L 1408.359 718.500 1406.594 711 C 1400.839 686.553, 1387.957 668.841, 1369.500 659.999 C 1357.529 654.264, 1348.597 652.649, 1332.141 653.244 C 1316.589 653.807, 1308.003 656.030, 1296.465 662.482 C 1288.435 666.973, 1276.508 678.038, 1271.285 685.844 L 1267.500 691.500 1267.242 632.750 L 1266.984 574 1250.992 574 L 1235 574 1235 722 M 281.559 587.250 C 281.228 588.344, 265.873 865.514, 265.965 868.750 C 265.992 869.700, 270.085 870, 283 870 L 300 870 300.066 866.750 C 300.361 852.263, 313.687 615.728, 314.164 616.500 C 314.504 617.050, 330.390 665.425, 349.466 724 C 368.542 782.575, 387.069 839.388, 390.637 850.250 L 397.124 870 416.894 870 L 436.664 870 470.484 765.750 C 489.086 708.413, 507.701 651.150, 511.852 638.500 L 519.400 615.500 520.078 624 C 520.451 628.675, 523.611 685.938, 527.100 751.250 L 533.444 870 550.472 870.001 L 567.500 870.003 567.222 864.751 C 567.069 861.863, 563.581 798.700, 559.472 724.390 C 555.362 650.079, 552 588.541, 552 587.640 L 552 586 522.975 586 L 493.950 586 493.054 588.358 C 492.561 589.655, 475.171 645.004, 454.410 711.356 C 433.649 777.708, 416.547 831.880, 416.404 831.738 C 416.089 831.422, 340 587.191, 340 586.494 C 340 586.222, 326.936 586, 310.969 586 C 288.612 586, 281.850 586.287, 281.559 587.250 M 1455.408 604.434 C 1458.293 611.339, 1465.538 618.147, 1471.963 619.989 L 1475 620.860 1475 619.043 C 1475 613.627, 1464.187 603.227, 1456.684 601.426 L 1453.869 600.750 1455.408 604.434 M 1503 602.727 C 1498.557 604.414, 1493.137 609.333, 1490.613 613.970 C 1489.067 616.811, 1488.057 619.390, 1488.369 619.702 C 1489.384 620.717, 1495.394 617.639, 1499.315 614.096 C 1502.531 611.191, 1507 604.471, 1507 602.540 C 1507 601.873, 1505.004 601.967, 1503 602.727 M 686.633 654.553 C 658.523 660.138, 635.719 676.604, 621.475 701.599 C 603.354 733.396, 601.230 781.040, 616.375 815.988 C 626.300 838.889, 646.263 858.876, 667.972 867.645 C 681.343 873.045, 689.286 874.409, 707.500 874.430 L 724.500 874.449 733.500 872.151 C 774.201 861.757, 802.284 827.540, 807.897 781.500 C 812.721 741.933, 801.413 704.248, 777.572 680.436 C 764.429 667.309, 748.470 658.829, 729.500 654.894 C 718.686 652.650, 697.073 652.478, 686.633 654.553 M 934.804 654.548 C 915.541 659.219, 897.184 672.549, 887.909 688.600 L 884.500 694.500 884.228 675.724 L 883.956 656.948 868.728 657.224 L 853.500 657.500 853.245 763.750 L 852.991 870 869.495 870 L 886 870 886.015 818.750 C 886.036 744.888, 887.134 733.647, 896.059 715.870 C 903.431 701.189, 916.728 690.384, 932.064 686.614 C 940.061 684.648, 953.457 684.551, 961.325 686.402 C 965.586 687.404, 967.246 687.467, 967.505 686.636 C 967.870 685.471, 971.078 662.043, 971.349 658.563 C 971.718 653.836, 948.334 651.267, 934.804 654.548 M 1084.781 654.398 C 1069.297 657.949, 1054.036 665.970, 1045.347 675.125 C 1040.789 679.926, 1033.126 691.381, 1032.783 693.905 C 1032.664 694.782, 1032.327 686.950, 1032.033 676.500 L 1031.500 657.500 1016.250 657.224 L 1001 656.948 1001 801.974 L 1001 947 1016.992 947 L 1032.983 947 1033.242 891.942 L 1033.500 836.884 1037.726 843.312 C 1049.580 861.343, 1072.384 873.277, 1097.720 874.707 C 1143.862 877.312, 1177.054 847.343, 1187.660 793.500 C 1190.161 780.806, 1190.166 747.234, 1187.668 734.500 C 1179.501 692.853, 1158.776 666.245, 1126.500 655.972 C 1117.757 653.189, 1093.967 652.291, 1084.781 654.398 M 1608.500 655.101 C 1579.265 662.248, 1557.221 685.386, 1547.142 719.500 C 1543.255 732.659, 1541.682 745.482, 1541.685 764 C 1541.690 789.275, 1545.151 807.108, 1553.463 824.678 C 1565.431 849.976, 1582.629 865.331, 1606.701 872.207 C 1613.057 874.023, 1617.091 874.441, 1628.500 874.468 C 1643.360 874.502, 1648.786 873.590, 1660 869.173 C 1674.709 863.380, 1685.714 854.811, 1693.340 843.212 L 1697.500 836.884 1697.758 891.942 L 1698.017 947 1714.512 947 L 1731.007 947 1730.753 802.250 L 1730.500 657.500 1715.272 657.224 L 1700.044 656.948 1699.772 675.541 L 1699.500 694.135 1695.643 687.426 C 1686.186 670.976, 1668.401 659.212, 1645.800 654.458 C 1635.924 652.380, 1618.391 652.683, 1608.500 655.101 M 1464 763.500 L 1464 870 1480.500 870 L 1497 870 1497 763.500 L 1497 657 1480.500 657 L 1464 657 1464 763.500 M 693.131 681.541 C 658.481 689.060, 638.690 726.025, 642.911 775.344 C 644.255 791.052, 646.888 801.281, 652.544 812.771 C 660.416 828.762, 672.043 839.306, 687.672 844.627 C 694.191 846.847, 697.340 847.305, 706.500 847.368 C 719.370 847.457, 725.770 846.118, 735.858 841.224 C 748.817 834.938, 760.198 821.401, 766.389 804.910 C 773.781 785.217, 774.840 754.600, 768.939 731.135 C 763.919 711.170, 750.966 693.685, 735.894 686.527 C 722.756 680.287, 707.243 678.479, 693.131 681.541 M 1079.191 682.025 C 1068.858 684.732, 1062.556 688.415, 1054.451 696.483 C 1045.891 705.004, 1040.055 715.675, 1036.242 729.776 L 1033.613 739.500 1033.613 763.500 L 1033.613 787.500 1036.280 797.371 C 1039.849 810.584, 1044.946 820.560, 1052.136 828.408 C 1064.112 841.477, 1077.016 847.403, 1093.500 847.403 C 1125.889 847.403, 1148.296 822.232, 1152.934 780.637 C 1155.839 754.588, 1152.507 730.614, 1143.415 712.147 C 1130.975 686.879, 1105.777 675.060, 1079.191 682.025 M 1625.263 681.447 C 1616.172 683.520, 1607.414 688.580, 1600 696.043 C 1584.527 711.617, 1577.882 732.168, 1577.882 764.450 C 1577.882 787.411, 1580.815 802.073, 1588.277 816.415 C 1597.270 833.702, 1612.217 844.800, 1629.586 847.087 C 1658.199 850.855, 1682.698 834.820, 1692.541 805.881 C 1699.659 784.952, 1700.638 754.085, 1694.947 730 C 1689.643 707.550, 1675.214 690.207, 1656.015 683.205 C 1647.761 680.195, 1634.163 679.418, 1625.263 681.447" stroke="none" fill="#53565b" fill-rule="evenodd"/><path d="M 1478.050 561.192 C 1476.232 567.412, 1473.929 574.118, 1472.931 576.095 C 1469.604 582.689, 1459.322 589.840, 1454.848 588.671 C 1453.832 588.405, 1453 588.545, 1453 588.982 C 1453 589.419, 1448.838 590.788, 1443.750 592.024 C 1438.662 593.261, 1433.956 594.557, 1433.291 594.903 C 1432.626 595.250, 1438.298 597.003, 1445.895 598.799 C 1468.141 604.056, 1471.955 607.630, 1477.931 628.811 C 1479.817 635.500, 1481.507 640.827, 1481.685 640.649 C 1481.863 640.471, 1483.134 636.540, 1484.510 631.913 C 1485.886 627.286, 1487.306 622.825, 1487.665 622 C 1488.024 621.175, 1488.235 620.130, 1488.135 619.679 C 1488.035 619.227, 1489.184 616.596, 1490.689 613.831 C 1494.807 606.265, 1499.432 603.645, 1516.672 599.114 C 1524.828 596.970, 1530.825 594.956, 1530 594.637 C 1529.175 594.318, 1522.930 592.697, 1516.123 591.034 C 1495.225 585.928, 1491.476 582.544, 1486.117 563.944 C 1484.304 557.650, 1482.490 551.912, 1482.088 551.192 C 1481.656 550.420, 1480.002 554.515, 1478.050 561.192 M 1234.495 722.500 L 1234.500 870.500 1251 870.500 L 1267.500 870.500 1267.513 814.750 L 1267.525 759 1267.254 814.500 L 1266.983 870 1250.995 870 L 1235.007 870 1234.748 722.250 L 1234.490 574.500 1234.495 722.500 M 1267.469 633 C 1267.469 665.175, 1267.595 678.337, 1267.749 662.250 C 1267.904 646.162, 1267.904 619.837, 1267.749 603.750 C 1267.595 587.663, 1267.469 600.825, 1267.469 633 M 884.417 675.500 C 884.418 685.950, 884.566 690.089, 884.746 684.698 C 884.926 679.307, 884.925 670.757, 884.744 665.698 C 884.563 660.639, 884.416 665.050, 884.417 675.500 M 1000.495 802.750 L 1000.500 947.500 1016.751 947.538 L 1033.002 947.577 1017.004 947.264 L 1001.007 946.950 1000.748 802.475 L 1000.490 658 1000.495 802.750 M 1699.415 676 C 1699.415 686.175, 1699.564 690.337, 1699.745 685.250 C 1699.927 680.163, 1699.927 671.837, 1699.745 666.750 C 1699.564 661.663, 1699.415 665.825, 1699.415 676 M 695.946 696.698 C 671.866 708.625, 659.913 751.284, 670.082 789 C 674.514 805.436, 684.127 819.438, 695.171 825.541 C 702.645 829.672, 711.989 829.733, 720.190 825.706 C 747.648 812.222, 758.226 756.380, 740.347 719.297 C 735.431 709.101, 724.851 698.122, 717.572 695.664 C 710.049 693.124, 702.426 693.488, 695.946 696.698 M 1086.500 695.227 C 1073.934 699.707, 1062.022 715.910, 1056.894 735.500 C 1054.219 745.721, 1053.287 765.701, 1054.955 777.106 C 1058.264 799.735, 1069.675 819.302, 1083.500 826.053 C 1090.678 829.559, 1100.556 829.450, 1107.576 825.789 C 1119.074 819.794, 1129.604 803.835, 1134.160 785.500 C 1137.030 773.951, 1137.283 750.640, 1134.663 739.155 C 1129.865 718.121, 1119.157 702.054, 1105.943 696.059 C 1101.018 693.825, 1091.568 693.421, 1086.500 695.227 M 1629.764 694.996 C 1617.765 698.609, 1605.177 715.231, 1599.966 734.344 C 1595.950 749.072, 1595.769 771.182, 1599.537 786.730 C 1602.267 797.994, 1609.376 811.536, 1616.077 818.237 C 1623.689 825.849, 1629.367 828.440, 1638.500 828.466 C 1644.410 828.483, 1646.336 828.024, 1650.868 825.520 C 1681.191 808.763, 1689.434 746.728, 1665.994 711.683 C 1657.940 699.642, 1649.106 693.995, 1638.500 694.108 C 1635.200 694.143, 1631.269 694.543, 1629.764 694.996 M 886.241 815.725 L 886 869.950 869.750 870.252 L 853.500 870.553 869.781 870.777 C 882.053 870.945, 886.181 870.692, 886.541 869.750 C 886.804 869.063, 886.899 844.425, 886.751 815 L 886.482 761.500 886.241 815.725 M 274.250 870.745 C 279.063 870.928, 286.938 870.928, 291.750 870.745 C 296.563 870.561, 292.625 870.411, 283 870.411 C 273.375 870.411, 269.438 870.561, 274.250 870.745 M 406.803 870.746 C 412.470 870.925, 421.470 870.924, 426.803 870.745 C 432.136 870.565, 427.500 870.419, 416.500 870.420 C 405.500 870.421, 401.136 870.568, 406.803 870.746 M 542.299 870.745 C 547.139 870.929, 554.789 870.928, 559.299 870.743 C 563.810 870.558, 559.850 870.408, 550.500 870.409 C 541.150 870.410, 537.460 870.562, 542.299 870.745 M 1384.299 870.745 C 1389.139 870.929, 1396.789 870.928, 1401.299 870.743 C 1405.810 870.558, 1401.850 870.408, 1392.500 870.409 C 1383.150 870.410, 1379.460 870.562, 1384.299 870.745 M 1472.750 870.744 C 1477.287 870.929, 1484.713 870.929, 1489.250 870.744 C 1493.787 870.559, 1490.075 870.407, 1481 870.407 C 1471.925 870.407, 1468.213 870.559, 1472.750 870.744 M 1705.750 947.744 C 1710.287 947.929, 1717.713 947.929, 1722.250 947.744 C 1726.787 947.559, 1723.075 947.407, 1714 947.407 C 1704.925 947.407, 1701.213 947.559, 1705.750 947.744" stroke="none" fill="#39cccc" fill-rule="evenodd"/></svg>