<svg width="196" height="196" viewBox="0 0 196 196" fill="none" xmlns="http://www.w3.org/2000/svg">
<path d="M126.195 12.6877C122.477 8.967 115.999 8.967 112.282 12.6877L63.3145 61.7661L137.455 135.906L186.324 86.926C188.17 85.0707 189.205 82.5603 189.205 79.9435C189.205 77.3267 188.17 74.8163 186.324 72.961L126.195 12.6877ZM53.4949 169.867H99.4994C102.123 169.867 104.592 168.841 106.451 166.979L132.842 140.529L58.702 66.3885L9.41126 115.794C7.57186 117.654 6.54077 120.165 6.54199 122.781C6.54322 125.397 7.57666 127.907 9.4178 129.765L46.5467 166.979C48.4022 168.841 50.8718 169.867 53.4949 169.867ZM140.467 176.4H35.9333C35.0922 176.438 34.2981 176.798 33.7162 177.407C33.1343 178.015 32.8095 178.825 32.8095 179.667C32.8095 180.509 33.1343 181.318 33.7162 181.927C34.2981 182.535 35.0922 182.896 35.9333 182.933H140.467C141.308 182.896 142.102 182.535 142.684 181.927C143.266 181.318 143.59 180.509 143.59 179.667C143.59 178.825 143.266 178.015 142.684 177.407C142.102 176.798 141.308 176.438 140.467 176.4Z" fill="#7986AC"/>
<path d="M176.4 186.2C180.008 186.2 182.933 183.275 182.933 179.667C182.933 176.058 180.008 173.133 176.4 173.133C172.792 173.133 169.867 176.058 169.867 179.667C169.867 183.275 172.792 186.2 176.4 186.2Z" fill="#7986AC"/>
</svg>
